# AST/ASF file generated using VICON BodyLanguage
# -----------------------------------------------
:version 1.10
:name VICON
:units
  mass 1.0
  length 0.45
  angle deg
:documentation
   .ast/.asf automatically generated from VICON data using
   VICON BodyBuilder and BodyLanguage model FoxedUp or BRILLIANT.MOD
:root
   order TX TY TZ RX RY RZ
   axis XYZ
   position 0 0 0  
   orientation 0 0 0 
:bonedata
  begin
     id 1 
     name lhipjoint
     direction 0.521689 -0.742065 0.420928 
     length 2.47002 
     axis 0 0 0  XYZ
  end
  begin
     id 2 
     name lfemur
     direction 0.34202 -0.939693 0  
     length 7.24654  
     axis 0 0 20  XYZ
    dof rx ry rz
    limits (-160.0 20.0)
           (-70.0 70.0)
           (-60.0 70.0)
  end
  begin
     id 3 
     name ltibia
     direction 0.34202 -0.939693 0   
     length 8.04849   
     axis 0 0 20   XYZ
    dof rx
    limits (-10.0 170.0)
  end
  begin
     id 4 
     name lfoot
     direction 0.0745411 -0.2048 0.975961   
     length 1.72367   
     axis -90 7.62852e-016 20   XYZ
    dof rx rz
    limits (-45.0 90.0)
           (-70.0 20.0)
  end
  begin
     id 5 
     name ltoes
     direction 1.53556e-011 -4.21901e-011 1   
     length 0.87311   
     axis -90 7.62852e-016 20   XYZ
    dof rx
    limits (-90.0 20.0)
  end
  begin
     id 6 
     name rhipjoint
     direction -0.52849 -0.738415 0.418857   
     length 2.48223  
     axis 0 0 0  XYZ 
  end
  begin
     id 7 
     name rfemur
     direction -0.34202 -0.939693 0   
     length 7.15571   
     axis 0 0 -20   XYZ
    dof rx ry rz
    limits (-160.0 20.0)
           (-70.0 70.0)
           (-70.0 60.0)
  end
  begin
     id 8 
     name rtibia
     direction -0.34202 -0.939693 0   
     length 7.81659   
     axis 0 0 -20   XYZ
    dof rx
    limits (-10.0 170.0)
 end
 begin
     id 9 
     name rfoot
     direction -0.0917348 -0.252039 0.963359   
     length 1.84382  
     axis -90 -7.62852e-016 -20   XYZ
    dof rx rz
    limits (-45.0 90.0)
           (-20.0 70.0)
  end
  begin
     id 10 
     name rtoes
     direction -1.53551e-011 -4.21879e-011 1   
     length 0.927771   
     axis -90 -7.62852e-016 -20   XYZ
    dof rx
    limits (-90.0 20.0)
  end
  begin
     id 11 
     name lowerback
     direction 0.00583058 0.999822 0.0179296   
     length 2.1429   
     axis 0 0 0   XYZ
    dof rx ry rz
    limits (-20.0 45.0)
           (-30.0 30.0)
           (-30.0 30.0)
  end
  begin
     id 12 
     name upperback
     direction -0.0137999 0.999752 -0.0175071   
     length 2.14252   
     axis 0 0 0   XYZ
    dof rx ry rz
    limits (-20.0 45.0)
           (-30.0 30.0)
           (-30.0 30.0)
  end
  begin
     id 13 
     name thorax
     direction -0.0158036 0.99955 -0.0254909   
     length 2.1383   
     axis 0 0 0   XYZ
    dof rx ry rz
    limits (-20.0 45.0)
           (-30.0 30.0)
           (-30.0 30.0)
  end
  begin
     id 14 
     name lowerneck
     direction -0.0101179 0.999403 -0.0330262   
     length 1.65808   
     axis 0 0 0   XYZ
    dof rx ry rz
    limits (-20.0 45.0)
           (-30.0 30.0)
           (-30.0 30.0)
  end
  begin
     id 15 
     name upperneck
     direction 0.0497734 0.995978 -0.074501   
     length 1.5897   
     axis 0 0 0   XYZ
    dof rx ry rz
    limits (-20.0 45.0)
           (-30.0 30.0)
           (-30.0 30.0)
  end
  begin
     id 16
     name head
     direction 0.0189524 0.999519 -0.0245438  
     length 1.74024  
     axis 0 0 0   XYZ
    dof rx ry rz
    limits (-20.0 45.0)
           (-30.0 30.0)
           (-30.0 30.0)
  end
  begin
     id 17 
     name lclavicle
     direction 0.945604 0.324422 0.0241537  
     length 3.59089  
     axis 0 0 0   XYZ
    dof ry rz
    limits (-20.0 10.0)
           (0.0 20.0)
  end
  begin
     id 18 
     name lhumerus
     direction 1 -4.48964e-011 -2.63524e-027   
     length 5.2391   
     axis 180 -30 -90   XYZ
    dof rx ry rz
    limits (-60.0 90.0)
           (-90.0 90.0)
           (-90.0 90.0)
  end
  begin
     id 19
     name lradius
     direction 1 -4.48969e-011 3.86978e-028   
     length 3.31467   
     axis 180 -30 -90   XYZ
    dof rx
    limits (-10.0 170.0)
  end
  begin
     id 20
     name lwrist
     direction 1 -4.48963e-011 7.20928e-028   
     length 1.65734   
     axis -5.52449e-016 90 90   XYZ
    dof ry
    limits (-180.0 0.0)
 end
  begin
     id 21 
     name lhand
     direction 1 -4.48964e-011 1.44186e-027   
     length 0.9659   
     axis -9.20027e-016 90 90   XYZ
    dof rx rz
    limits (-90.0 90.0)
           (-45.0 45.0)
  end
  begin
     id 22 
     name lfingers
     direction 1 -4.48965e-011 2.88371e-027   
     length 0.778733   
     axis -1.84005e-015 90 90   XYZ
    dof rx
    limits (0.0 90.0)
  end
  begin
     id 23
     name lthumb
     direction 0.707107 -6.34931e-011 0.707107   
     length 1.11811   
     axis -90 45 2.85299e-015   XYZ
    dof rx rz
    limits (-45.0 45.0)
           (-45.0 45.0)
  end
  begin
     id 24 
     name rclavicle
     direction -0.923762 0.370785 0.0958234   
     length 3.54196  
     axis 0 0 0   XYZ 
    dof ry rz
    limits (-10.0 20.0)
           (-20.0 0.0)
  end
  begin
     id 25 
     name rhumerus
     direction -1 -4.48966e-011 1.18702e-017  
     length 5.30252   
     axis 180 30 90   XYZ
    dof rx ry rz
    limits (-90.0 60.0)
           (-90.0 90.0)
           (-90.0 90.0)
  end
  begin
     id 26 
     name rradius
     direction -1 -4.48966e-011 4.46736e-027   
     length 3.67875   
     axis 180 30 90   XYZ
    dof rx
    limits (-10.0 170.0)
  end
  begin
     id 27 
     name rwrist
     direction -1 -4.48966e-011 7.20928e-028   
     length 1.83937   
     axis -5.52449e-016 -90 -90   XYZ
    dof ry
    limits (-180.0 0.0)
  end
  begin
     id 28
     name rhand
     direction -1 -4.48973e-011 1.44186e-027   
     length 0.594811   
     axis -9.20027e-016 -90 -90   XYZ
    dof rx rz
    limits (-90.0 90.0)
           (-45.0 45.0)
  end
  begin
     id 29
     name rfingers
     direction -1 -4.48963e-011 2.88371e-027   
     length 0.479552   
     axis -1.84005e-015 -90 -90   XYZ
    dof rx
    limits (0.0 90.0)
  end
  begin
     id 30
     name rthumb
     direction -0.707107 -6.34932e-011 0.707107   
     length 0.688544   
     axis -90 -45 -2.85299e-015   XYZ
    dof rx rz
    limits (-45.0 45.0)
           (-45.0 45.0)
  end
:hierarchy
  begin
    root lhipjoint rhipjoint lowerback
    lhipjoint lfemur
    lfemur ltibia
    ltibia lfoot
    lfoot ltoes
    rhipjoint rfemur
    rfemur rtibia
    rtibia rfoot
    rfoot rtoes
    lowerback upperback
    upperback thorax
    thorax lowerneck lclavicle rclavicle
    lowerneck upperneck
    upperneck head
    lclavicle lhumerus
    lhumerus lradius
    lradius lwrist
    lwrist lhand lthumb
    lhand lfingers
    rclavicle rhumerus
    rhumerus rradius
    rradius rwrist
    rwrist rhand rthumb
    rhand rfingers
  end

#!OML:ASF E:\acrobat2\Project_11_07_03\Capture day 1\Session 1\Acrobat.ASF
:FULLY-SPECIFIED
:DEGREES
296
root 8.81464 18.0456 18.6675 21.2494 2.56703 2.36963
lowerback 12.4309 -0.394557 -0.451133
upperback 5.46597 -0.58395 -1.04382
thorax -1.25531 -0.28055 -0.752188
lowerneck 0.796392 -1.58653 -2.0461
upperneck 7.70431 -2.16387 1.38874
head 2.32631 -1.09166 0.748581
rclavicle -6.05051e-015 2.83268e-015
rhumerus -20.8407 12.7189 -83.7562
rradius 31.8475
rwrist 3.88688
rhand -9.39818 -39.5244
rfingers 7.12502
rthumb 16.5631 -68.8375
lclavicle -6.05051e-015 2.83268e-015
lhumerus -12.9632 -33.4976 83.9671
lradius 26.0247
lwrist 13.4087
lhand -16.7701 -13.3589
lfingers 7.12502
lthumb 9.45712 16.4089
rfemur -38.282 2.06848 16.7565
rtibia 20.4102
rfoot -12.7706 -15.2366
rtoes 26.9183
lfemur -39.3275 -4.31771 -21.7525
ltibia 20.4561
lfoot -2.82101 -1.04489
ltoes 41.9373
297
root 8.81184 17.9984 18.5373 22.0499 2.41715 2.57003
lowerback 13.1854 -0.37163 -0.67258
upperback 5.72723 -0.583856 -1.05457
thorax -1.38609 -0.282526 -0.635442
lowerneck 0.896265 -1.5643 -2.03574
upperneck 6.93546 -2.12535 1.28205
head 2.05341 -1.07414 0.714405
rclavicle 4.50993e-015 9.91439e-015
rhumerus -20.2008 13.6387 -83.4211
rradius 31.9718
rwrist 4.06446
rhand -9.64065 -39.5908
rfingers 7.12502
rthumb 16.3297 -68.9233
lclavicle 4.50993e-015 9.91439e-015
lhumerus -12.1742 -33.8747 83.4586
lradius 25.8005
lwrist 12.6152
lhand -17.4657 -13.7181
lfingers 7.12502
lthumb 8.786 16.079
rfemur -40.3883 2.17546 16.2919
rtibia 21.7835
rfoot -13.3847 -15.0129
rtoes 29.4171
lfemur -41.3938 -4.1627 -22.0255
ltibia 21.7544
lfoot -2.57703 -1.24987
ltoes 39.0071
298
root 8.81064 17.947 18.4101 22.9709 2.30678 2.56807
lowerback 13.7428 -0.325336 -0.651527
upperback 5.9471 -0.523915 -1.04485
thorax -1.45435 -0.251996 -0.643806
lowerneck 1.20156 -1.60922 -1.90392
upperneck 6.0163 -2.17706 1.08928
head 1.69824 -1.09993 0.633292
rclavicle 1.35298e-014 -5.8393e-016
rhumerus -19.6139 14.595 -83.0789
rradius 32.0258
rwrist 4.15656
rhand -10.2191 -39.5927
rfingers 7.12502
rthumb 15.7727 -68.97
lclavicle 1.35298e-014 -5.8393e-016
lhumerus -11.3324 -34.9475 82.8442
lradius 25.6351
lwrist 12.3467
lhand -17.7781 -13.7421
lfingers 7.12502
lthumb 8.48447 16.0675
rfemur -42.7337 1.96214 16.2803
rtibia 23.0407
rfoot -12.6868 -15.3711
rtoes 26.0657
lfemur -43.6623 -3.95551 -22.057
ltibia 23.1513
lfoot -2.70446 -1.09214
ltoes 41.2731
299
root 8.80929 17.8948 18.2907 23.7658 2.23618 2.579
lowerback 14.3121 -0.278629 -0.592162
upperback 6.29952 -0.457197 -1.06078
thorax -1.3886 -0.217076 -0.702719
lowerneck 1.36099 -1.66681 -2.0417
upperneck 5.01088 -2.26316 1.34187
head 1.35815 -1.14048 0.736808
rclavicle -3.83903e-015 -1.85864e-014
rhumerus -18.8277 15.4182 -82.6906
rradius 32.057
rwrist 4.19816
rhand -10.7467 -39.7618
rfingers 7.12502
rthumb 15.2645 -69.1785
lclavicle -3.83903e-015 -1.85864e-014
lhumerus -10.2611 -36.7727 81.9674
lradius 25.5803
lwrist 12.7025
lhand -18.1469 -13.711
lfingers 7.12502
lthumb 8.12852 16.1127
rfemur -44.8723 1.46331 16.4716
rtibia 24.0854
rfoot -11.1242 -15.824
rtoes 19.2277
lfemur -45.714 -3.83248 -22.0931
ltibia 24.4716
lfoot -2.46548 -1.30292
ltoes 38.7518
300
root 8.80719 17.8375 18.1742 24.5331 2.26161 2.53819
lowerback 14.8317 -0.29794 -0.471278
upperback 6.70993 -0.465648 -1.04917
thorax -1.23404 -0.218208 -0.757025
lowerneck 1.44264 -1.68389 -2.2634
upperneck 3.96869 -2.29726 1.77943
head 1.0282 -1.15528 0.91243
rclavicle 2.55935e-015 1.63997e-015
rhumerus -17.8431 16.2992 -82.2658
rradius 31.9954
rwrist 4.28657
rhand -10.9866 -40.0965
rfingers 7.12502
rthumb 15.0334 -69.5307
lclavicle 2.55935e-015 1.63997e-015
lhumerus -9.04564 -38.1995 80.9505
lradius 25.431
lwrist 12.677
lhand -18.7846 -13.7724
lfingers 7.12502
lthumb 7.5131 16.0742
rfemur -46.9287 0.995867 16.7444
rtibia 25.2478
rfoot -10.1498 -15.8146
rtoes 15.0969
lfemur -47.7263 -3.79285 -22.0399
ltibia 25.7774
lfoot -2.48488 -1.28562
ltoes 40.1859
301
root 8.80303 17.7729 18.0552 25.3408 2.18434 2.54352
lowerback 15.4661 -0.261198 -0.508029
upperback 7.01833 -0.424822 -1.05624
thorax -1.24366 -0.197575 -0.749033
lowerneck 1.397 -1.74086 -2.00239
upperneck 3.06963 -2.3611 1.64711
head 0.752245 -1.18469 0.828098
rclavicle 4.07509e-015 2.41026e-015
rhumerus -16.8973 17.0001 -81.7952
rradius 31.8466
rwrist 4.67492
rhand -10.9785 -40.3851
rfingers 7.12502
rthumb 15.0412 -69.8187
lclavicle 4.07509e-015 2.41026e-015
lhumerus -7.83469 -38.9594 80.0172
lradius 25.1
lwrist 12.0826
lhand -19.1859 -13.8838
lfingers 7.12502
lthumb 7.12573 15.9762
rfemur -49.094 0.820929 16.7841
rtibia 26.6256
rfoot -9.82749 -15.6457
rtoes 13.473
lfemur -49.8394 -3.68257 -22.0488
ltibia 27.1565
lfoot -2.53775 -1.29987
ltoes 41.5522
302
root 8.7946 17.7043 17.9329 26.2174 1.90245 2.71159
lowerback 16.2028 -0.156961 -0.876964
upperback 7.19142 -0.349264 -1.10584
thorax -1.44528 -0.165848 -0.603822
lowerneck 1.25149 -1.78324 -1.73161
upperneck 2.42282 -2.40381 1.34511
head 0.569823 -1.20483 0.68981
rclavicle 4.87022e-015 -9.36773e-015
rhumerus -16.0752 17.5848 -81.3259
rradius 31.6553
rwrist 5.19655
rhand -10.6576 -40.4311
rfingers 7.12502
rthumb 15.3503 -69.8413
lclavicle 4.87022e-015 -9.36773e-015
lhumerus -6.79411 -39.4963 79.1868
lradius 24.7947
lwrist 11.4532
lhand -19.3035 -13.9271
lfingers 7.12502
lthumb 7.01216 15.9367
rfemur -51.5078 0.87396 16.4624
rtibia 28.24
rfoot -9.61932 -15.5908
rtoes 11.6371
lfemur -52.1376 -3.43108 -22.2942
ltibia 28.7379
lfoot -2.53682 -1.41703
ltoes 41.7714
303
root 8.7914 17.63 17.8137 27.1115 1.81542 2.74974
lowerback 16.8554 -0.139581 -0.889275
upperback 7.34402 -0.33774 -1.16917
thorax -1.62543 -0.15845 -0.664644
lowerneck 1.16984 -1.83739 -1.46837
upperneck 1.751 -2.46765 1.1656
head 0.372936 -1.23544 0.592679
rclavicle 4.09993e-015 1.70458e-014
rhumerus -15.2846 17.9408 -80.9292
rradius 31.4371
rwrist 5.78614
rhand -10.1976 -40.4296
rfingers 7.12502
rthumb 15.7934 -69.8053
lclavicle 4.09993e-015 1.70458e-014
lhumerus -5.7864 -40.5351 78.1594
lradius 24.6291
lwrist 10.907
lhand -19.4284 -13.5624
lfingers 7.12502
lthumb 6.89163 16.3054
rfemur -53.9975 0.73445 16.4065
rtibia 30.0669
rfoot -9.59631 -15.3458
rtoes 11.193
lfemur -54.5629 -3.19572 -22.4735
ltibia 30.5319
lfoot -2.47596 -1.61247
ltoes 41.7452
304
root 8.79552 17.5467 17.703 27.926 1.86257 2.64488
lowerback 17.425 -0.169527 -0.632581
upperback 7.5485 -0.34179 -1.16759
thorax -1.70685 -0.154713 -0.807229
lowerneck 1.19171 -1.90576 -1.19987
upperneck 0.885803 -2.55257 0.964594
head 0.102002 -1.27739 0.491862
rclavicle 6.41081e-015 -1.01877e-015
rhumerus -14.4078 18.1429 -80.4571
rradius 31.117
rwrist 6.51741
rhand -10.1828 -40.4647
rfingers 7.12502
rthumb 15.8076 -69.8393
lclavicle 6.41081e-015 -1.01877e-015
lhumerus -4.62679 -41.4596 77.1063
lradius 24.3109
lwrist 10.1462
lhand -19.2937 -13.0791
lfingers 7.12502
lthumb 7.02161 16.7844
rfemur -56.3493 0.53402 16.5701
rtibia 31.8611
rfoot -9.50914 -14.9612
rtoes 11.1115
lfemur -56.8808 -2.9938 -22.5438
ltibia 32.3113
lfoot -2.43706 -1.88433
ltoes 41.4071
305
root 8.79684 17.4566 17.5954 28.7756 1.80006 2.58895
lowerback 17.9027 -0.127166 -0.586693
upperback 7.77695 -0.279193 -1.07713
thorax -1.71077 -0.123834 -0.749695
lowerneck 1.07947 -1.97838 -1.22625
upperneck 0.0614857 -2.64786 0.823862
head -0.1292 -1.32494 0.458262
rclavicle 1.39149e-015 5.76476e-015
rhumerus -13.3739 18.4573 -79.7067
rradius 30.7471
rwrist 7.09588
rhand -10.3893 -40.4737
rfingers 7.12502
rthumb 15.6087 -69.864
lclavicle 1.39149e-015 5.76476e-015
lhumerus -3.26949 -42.0032 76.2046
lradius 23.8201
lwrist 9.59231
lhand -19.0904 -12.8949
lfingers 7.12502
lthumb 7.21787 16.962
rfemur -58.7927 0.51951 16.5073
rtibia 33.7939
rfoot -9.70053 -14.4071
rtoes 12.2981
lfemur -59.2192 -2.81712 -22.6143
ltibia 34.0477
lfoot -2.43654 -2.20732
ltoes 41.061
